<?xml version="1.0" encoding="iso-8859-1"?>
<!-- Generator: Adobe Illustrator 19.0.0, SVG Export Plug-In . SVG Version: 6.00 Build 0)  -->
<svg version="1.1" id="Capa_1" xmlns="http://www.w3.org/2000/svg" xmlns:xlink="http://www.w3.org/1999/xlink" x="0px" y="0px"
	 viewBox="0 0 512 512" style="enable-background:new 0 0 512 512; fill: white" xml:space="preserve">
<g>
	<g>
		<path d="M500.675,219.779c2.78-3.94,5.129-8.218,6.967-12.796c9.151-22.793,3.703-46.851-14.572-64.355
			c-29.708-28.456-69.788-44.127-112.857-44.127c-22.149,0-43.503,4.142-63.529,12.316c-20.027-8.175-41.382-12.316-63.53-12.316
			c-21.061,0-41.459,3.764-60.683,11.191c-19.225-7.428-39.623-11.191-60.684-11.191c-43.069,0-83.15,15.671-112.858,44.127
			C0.655,160.133-4.793,184.19,4.358,206.983c1.837,4.575,4.184,8.85,6.962,12.789c-6.285,6.295-9.576,13.438-9.576,20.923
			c0,6.939,2.821,13.511,8.137,19.393c-3.453,3.854-5.125,8.889-4.597,13.954c0.567,5.436,3.593,10.347,8.289,13.466l0.105,0.07
			c5.391,3.628,12.548,6.241,20.142,7.357c7.968,1.181,16.215,0.798,23.803-1.094c5.526-1.343,9.854-1.65,12.868-0.913
			c2.458,0.599,4.268,2.017,6.029,4.701c1.783,2.755,4.099,5.361,6.887,7.747c0.167,0.146,0.346,0.293,0.522,0.438l0.812,0.745
			c0.547,0.5,1.103,0.983,1.681,1.461c1.197,0.984,2.4,1.874,3.539,2.619c4.849,3.215,10.213,5.323,15.962,6.27
			c11.631,1.888,23.444-1.51,32.412-9.309c1.933-1.68,4.22-2.436,6.627-2.17c2.469,0.271,4.666,1.561,6.347,3.72
			c7.356,9.471,18.206,15.355,29.763,16.145c11.575,0.79,23.03-3.585,31.41-12.021c1.845-1.854,4.087-2.782,6.514-2.714
			c2.437,0.079,4.659,1.178,6.424,3.175c7.892,8.932,19.05,14.053,30.612,14.052c0.002,0,0.003,0,0.005,0
			c11.56,0,22.716-5.121,30.607-14.051c1.766-1.998,3.988-3.097,6.427-3.176c2.42-0.067,4.668,0.858,6.508,2.711
			c8.385,8.439,19.854,12.822,31.41,12.024c11.56-0.789,22.409-6.673,29.76-16.136c1.689-2.168,3.886-3.457,6.343-3.728
			c2.403-0.261,4.702,0.487,6.634,2.165c8.972,7.802,20.784,11.197,32.438,9.309c5.73-0.944,11.093-3.052,15.904-6.241
			c1.179-0.771,2.383-1.661,3.586-2.652c0.569-0.47,1.129-0.956,1.737-1.514l0.753-0.689c0.175-0.144,0.35-0.289,0.515-0.433
			c2.787-2.385,5.104-4.992,6.858-7.706c1.789-2.726,3.6-4.144,6.067-4.744c3.006-0.736,7.332-0.429,12.815,0.904
			c7.633,1.902,15.881,2.286,23.84,1.105c4.625-0.679,9.079-1.919,13.069-3.593c2.542,3.089,3.95,6.958,3.95,11.086v11.225
			c0,9.649-7.848,17.5-17.495,17.5H34.235c-9.647,0-17.495-7.851-17.495-17.5v-6.513c0-4.143-3.356-7.5-7.498-7.5
			c-4.142,0-7.498,3.357-7.498,7.5v6.513c0,17.921,14.575,32.5,32.49,32.5h427.218c3.71,10.208,2.444,21.75-3.643,31.586
			c-8.045,13-22.815,20.761-39.51,20.761h-324.6c-26.222,0-41.521-17.518-44.639-33.794c-0.78-4.068-4.71-6.728-8.776-5.954
			c-4.066,0.78-6.731,4.71-5.952,8.778c2.395,12.499,9.379,23.986,19.665,32.347c10.966,8.912,24.696,13.623,39.702,13.623H418.3
			c21.924,0,41.46-10.417,52.26-27.865c7.546-12.194,9.765-26.341,6.536-39.481h0.669c17.915,0,32.49-14.579,32.49-32.5v-11.225
			c0-7.216-2.448-14.186-6.767-19.816c1.777-2.535,2.901-5.471,3.226-8.579c0.528-5.069-1.129-10.111-4.564-13.982
			c5.295-5.873,8.105-12.432,8.105-19.357C510.255,233.223,506.954,226.075,500.675,219.779z M36.01,280.097
			c-5.432-0.799-10.389-2.562-13.986-4.981l-0.144-0.096c-0.981-0.652-1.579-1.552-1.68-2.533c-0.066-0.633,0.049-1.585,0.952-2.504
			l0.109-0.11c0.111-0.112,0.21-0.231,0.312-0.349c2.26,1.378,4.679,2.697,7.296,3.931c5.838,2.752,12.37,5.042,19.396,6.836
			C44.22,280.741,40.019,280.69,36.01,280.097z M16.74,240.695c0-3.707,2.09-7.048,4.63-9.745
			c12.386,10.896,29.041,17.245,47.166,17.245h86.339c-8.088,11.361-33.657,21.734-67.709,21.734
			C45.663,269.93,16.74,254.522,16.74,240.695z M422.956,289.482c-1.014,1.568-2.343,3.046-4.065,4.515
			c-0.014,0.012-0.072,0.063-0.086,0.075l-0.174,0.144c-0.283,0.233-0.559,0.467-0.813,0.703l-0.613,0.575
			c-0.358,0.328-0.724,0.645-1.089,0.945c-0.773,0.638-1.532,1.2-2.291,1.697c-3.071,2.036-6.469,3.371-10.076,3.966
			c-7.33,1.187-14.498-0.881-20.185-5.828c-5.092-4.423-11.513-6.461-18.097-5.753c-6.494,0.715-12.369,4.061-16.549,9.428
			c-4.808,6.188-11.537,9.876-18.95,10.382c-7.333,0.501-14.356-2.205-19.751-7.636c-4.785-4.813-11.042-7.343-17.632-7.127
			c-6.571,0.215-12.669,3.139-17.172,8.233c-5.121,5.795-12,8.985-19.374,8.985c-0.001,0-0.002,0-0.003,0
			c-7.374,0.001-14.255-3.19-19.377-8.985c-4.502-5.095-10.599-8.019-17.169-8.233c-6.591-0.229-12.85,2.315-17.638,7.13
			c-5.392,5.427-12.398,8.142-19.751,7.633c-7.411-0.506-14.139-4.193-18.952-10.391c-4.174-5.359-10.049-8.704-16.555-9.42
			c-6.564-0.712-12.992,1.33-18.09,5.758c-5.685,4.943-12.849,7.014-20.161,5.828c-3.626-0.598-7.022-1.933-10.133-3.994
			c-0.721-0.473-1.481-1.036-2.247-1.666c-0.374-0.309-0.741-0.628-1.032-0.893l-0.711-0.667c-0.228-0.212-0.5-0.44-0.778-0.669
			l-0.172-0.142c-0.029-0.026-0.059-0.052-0.089-0.078c-1.722-1.471-3.053-2.948-4.094-4.558c-1.113-1.697-2.34-3.194-3.654-4.531
			c0.578,0.006,1.153,0.02,1.733,0.02c21.896,0,42.599-4.075,58.296-11.476c14.021-6.609,22.977-15.399,25.985-25.259h0.271
			c3.008,9.86,11.964,18.65,25.985,25.259c15.697,7.4,36.401,11.476,58.297,11.476s42.599-4.075,58.297-11.476
			c14.021-6.609,22.977-15.399,25.985-25.259h0.271c3.008,9.86,11.964,18.65,25.985,25.259c15.696,7.4,36.4,11.476,58.296,11.476
			c0.598,0,1.191-0.015,1.787-0.021C425.315,286.249,424.089,287.756,422.956,289.482z M188.29,248.195h135.42
			c-8.088,11.361-33.657,21.734-67.71,21.734C221.947,269.929,196.378,259.556,188.29,248.195z M491.8,272.48
			c-0.106,1.02-0.724,1.952-1.777,2.651c-0.377,0.254-0.777,0.496-1.184,0.735c-0.018,0.01-0.034,0.021-0.052,0.032
			c-3.441,2.01-7.894,3.488-12.734,4.2c-4.015,0.595-8.226,0.644-12.294,0.186c7.017-1.793,13.541-4.081,19.372-6.83
			c2.636-1.242,5.07-2.57,7.343-3.959c0.104,0.12,0.204,0.241,0.316,0.356C491.75,270.828,491.869,271.82,491.8,272.48z
			 M424.834,269.93c-34.052,0-59.621-10.373-67.709-21.734h86.339c18.125,0,34.779-6.348,47.165-17.244
			c2.512,2.67,4.631,6.022,4.631,9.744C495.26,254.522,466.337,269.93,424.834,269.93z M493.728,201.396
			c-7.755,19.318-27.485,31.802-50.262,31.802H68.536c-22.777,0-42.507-12.483-50.262-31.802
			c-6.785-16.903-2.663-34.821,11.028-47.934c26.903-25.77,63.299-39.961,102.486-39.961c14,0,27.669,1.825,40.829,5.43
			c-11.842,6.52-22.664,14.449-32.319,23.697c-6.124,5.866-10.851,12.521-14.051,19.777c-1.671,3.79,0.046,8.217,3.835,9.889
			c0.984,0.435,2.011,0.64,3.022,0.64c2.88,0,5.627-1.67,6.864-4.476c2.403-5.45,6.004-10.495,10.703-14.996
			c12.733-12.196,27.744-21.869,44.615-28.748c0.006-0.002,0.011-0.006,0.017-0.008c18.242-7.436,37.706-11.205,57.853-11.205
			c15.365,0,30.298,2.193,44.59,6.513c-11.098,6.317-21.274,13.884-30.387,22.614c-4.442,4.254-8.488,10.636-12.026,18.97
			c-1.619,3.813,0.159,8.216,3.97,9.835c0.957,0.406,1.95,0.599,2.928,0.599c2.917,0,5.692-1.715,6.904-4.57
			c2.699-6.359,5.671-11.2,8.594-13.999c12.03-11.524,26.134-20.818,41.919-27.622c0.001-0.001,0.003-0.001,0.003-0.001
			c18.995-8.187,39.37-12.337,60.563-12.337c39.186,0,75.583,14.191,102.486,39.961C496.39,166.577,500.513,184.495,493.728,201.396
			z"/>
	</g>
</g>
<g>
</g>
<g>
</g>
<g>
</g>
<g>
</g>
<g>
</g>
<g>
</g>
<g>
</g>
<g>
</g>
<g>
</g>
<g>
</g>
<g>
</g>
<g>
</g>
<g>
</g>
<g>
</g>
<g>
</g>
</svg>
