<?xml version="1.0" encoding="iso-8859-1"?>
<!-- Generator: Adobe Illustrator 19.0.0, SVG Export Plug-In . SVG Version: 6.00 Build 0)  -->
<svg version="1.1" id="Layer_1" xmlns="http://www.w3.org/2000/svg" xmlns:xlink="http://www.w3.org/1999/xlink" x="0px" y="0px"
	 viewBox="0 0 512 512" fill="white" style="enable-background:new 0 0 512 512;" xml:space="preserve">
<g>
	<g>
		<g>
			<path d="M239.466,366.179c9.766,4.938,21.675,1.021,26.61-8.735l15.193-30.041c4.935-9.761,1.025-21.675-8.735-26.61
				c-9.761-4.935-21.673-1.025-26.61,8.735l-15.193,30.041C225.795,349.329,229.706,361.243,239.466,366.179z"/>
			<path d="M380.64,161.076c11.608-36.38-15.665-73.682-53.869-73.682h-7.281V19.825c0-17.574-21.339-26.47-33.806-14.004
				L204.11,87.394h-18.881c-38.128,0-65.495,37.244-53.869,73.682c-28.918,2.462-51.701,26.771-51.701,56.314
				c0,26.475,18.297,48.749,42.908,54.863l115.761,228.898c7.32,14.475,28.036,14.454,35.345,0l115.761-228.898
				c24.61-6.114,42.907-28.388,42.907-54.863C432.341,187.847,409.557,163.538,380.64,161.076z M279.883,67.635v19.759h-19.759
				L279.883,67.635z M185.229,127.002c13.675,0,127.879,0,141.543,0c9.333,0,16.927,7.594,16.927,16.927
				s-7.594,16.927-16.927,16.927H185.229c-9.333,0-16.927-7.593-16.927-16.927C168.301,134.596,175.895,127.002,185.229,127.002z
				 M256,448.332l-88.204-174.408h176.407L256,448.332z M375.806,234.317H136.193c-9.333,0-16.927-7.593-16.927-16.927
				c0-9.334,7.594-16.927,16.927-16.927c9.73,0,234.673,0,239.613,0c9.333,0,16.927,7.593,16.927,16.927
				C392.733,226.723,385.139,234.317,375.806,234.317z"/>
		</g>
	</g>
</g>
<g>
</g>
<g>
</g>
<g>
</g>
<g>
</g>
<g>
</g>
<g>
</g>
<g>
</g>
<g>
</g>
<g>
</g>
<g>
</g>
<g>
</g>
<g>
</g>
<g>
</g>
<g>
</g>
<g>
</g>
</svg>
