<?xml version="1.0" encoding="iso-8859-1"?>
<!-- Generator: Adobe Illustrator 19.0.0, SVG Export Plug-In . SVG Version: 6.00 Build 0)  -->
<svg version="1.1" id="Capa_1" xmlns="http://www.w3.org/2000/svg" xmlns:xlink="http://www.w3.org/1999/xlink" x="0px" y="0px"
	 viewBox="0 0 487.985 487.985" style="enable-background:new 0 0 487.985 487.985;" fill="white" xml:space="preserve">
<g>
	<g>
		<path d="M479.025,48.613c-0.948-0.451-1.99-0.67-3.04-0.64h-104c-2.126-0.012-4.17,0.823-5.68,2.32l-11.92,11.92l-122.8-61.36
			c-3.933-1.975-8.723-0.403-10.72,3.52l-53.36,106.64c-11.799,3.481-20.908,12.894-24,24.8c-1.502,6.232-6.139,11.232-12.24,13.2
			l-8.48,2.96c-18.177,6.08-27.989,25.739-21.92,43.92l5.44,16l-6.64,1.68c-22.756,5.708-36.576,28.783-30.868,51.539
			c0.748,2.98,1.816,5.871,3.188,8.621c2.471,4.773,3.368,10.206,2.56,15.52l-1.52,10.64c-1.818,11.312,1.073,22.875,8,32
			c0.48,0.64,1.12,1.2,1.6,1.76l-76.32,76.64c-2.27,2.3-2.933,5.741-1.68,8.72c1.227,2.987,4.13,4.944,7.36,4.96h82l3.04,10.8
			c7.382,25.967,34.417,41.033,60.383,33.651c0.059-0.017,0.118-0.034,0.177-0.051c8.556-2.398,17.717-1.275,25.44,3.12l16,9.28
			c17.737,10.131,39.899,8.186,55.6-4.88l1.84-1.52c11.474-9.445,27.842-10.067,40-1.52l8.88,6.4
			c8.548,5.898,18.738,8.949,29.12,8.72c8.421-0.009,16.693-2.215,24-6.4l24-13.6c4.882-2.769,10.387-4.256,16-4.32h5.92
			c17.233-0.106,33.16-9.206,42-24l9.76-16h19.84c4.418,0,8-3.582,8-8V55.973C483.969,52.743,482.013,49.84,479.025,48.613z
			 M375.265,63.973h25.44l-14.32,14.24l-16.88-8L375.265,63.973z M374.225,89.973l-8,8l-6.16-11.76
			c-0.813-1.471-1.721-2.888-2.72-4.24L374.225,89.973z M231.265,18.693l97.28,48.48c-6.137,0.019-12.157,1.676-17.44,4.8
			l-3.52,2.08c-5.164,3.094-11.494,3.539-17.04,1.2l-20.24-8.72c-16.795-7.249-36.335-0.258-44.72,16l-6.32,13.44
			c-2.812,5.619-8.245,9.461-14.48,10.24l-17.92,2.24L231.265,18.693z M127.905,167.093h-0.64l8.72-2.88
			c11.265-3.754,19.813-13.028,22.64-24.56c1.949-7.511,8.296-13.065,16-14l32-4c11.51-1.412,21.545-8.502,26.72-18.88l6.4-12.72
			c4.44-8.789,14.931-12.635,24-8.8l20.24,8.72c10.366,4.525,22.278,3.781,32-2l3.52-2.16c8.899-5.263,20.379-2.315,25.642,6.584
			c0.273,0.461,0.525,0.934,0.758,1.416l8.48,17.04l-14.4,14.16c-30.735-28.455-78.719-26.607-107.174,4.128
			c-9.728,10.508-16.283,23.555-18.906,37.632c-35.173-14.732-75.814-1.025-94.88,32l-2.64-8
			C113.133,181.059,118.255,170.529,127.905,167.093z M283.985,136.853v28.72l-18.32-18.32l-11.36,11.28l18.4,18.32h-28.72v13.36
			c-4.547-5.835-9.94-10.958-16-15.2c3.2-32.938,32.495-57.046,65.432-53.846c12.804,1.244,24.868,6.575,34.408,15.206l-27.84,28.16
			v-27.68H283.985z M271.745,192.853l-16.72,16.72c-2.208-5.926-5.165-11.545-8.8-16.72H271.745z M207.745,232.453l18.16-17.84
			l-11.2-11.44l-18.72,18.08v-28.4h-16v28.72l-18.32-18.32l-11.36,11.28l18.4,18.32h-28.72v16h27.92l-17.52,17.44l11.2,11.36
			l18.4-18.16v20.48h4.72l-15.12,15.12c-26.848-6.518-45.713-30.612-45.6-58.24c0.096-4.336,0.632-8.652,1.6-12.88v-0.56
			c7.54-32.268,39.81-52.314,72.078-44.775c21.909,5.119,39.113,22.065,44.562,43.895l-14.24,14.24v-4.8L207.745,232.453z
			 M216.465,248.453l-4.48,4.32l-4.48-4.32H216.465z M200.545,263.973l-4.48,4.56v-8.88L200.545,263.973z M85.345,243.893
			c3.336-7.286,9.818-12.649,17.6-14.56l5.12-1.28c-0.348,2.921-0.535,5.859-0.56,8.8c-0.102,31.485,19.3,59.744,48.72,70.96
			l-26.88,26.88l-18.24-2.32c-14.431-1.748-24.712-14.864-22.963-29.294c0.025-0.209,0.053-0.417,0.083-0.625l1.52-10.72
			c1.232-8.542-0.193-17.255-4.08-24.96c-3.376-7.279-3.258-15.698,0.32-22.88H85.345z M31.265,407.973l64.32-64
			c4.416,2.338,9.209,3.881,14.16,4.56l5.92,0.72l-58.96,58.72H31.265z M79.265,407.973l56.48-56.48l3.28,0.4l0.48-4.16
			l155.44-155.76c2.032-0.85,3.623-2.499,4.4-4.56l123.92-123.44h33.44l-344,344H79.265z M433.025,431.973
			c-5.976,9.896-16.679,15.961-28.24,16h-5.92c-8.423,0.07-16.687,2.301-24,6.48l-24,13.52c-11.173,6.379-25.032,5.692-35.52-1.76
			l-8.88-6.32c-18.122-12.955-42.699-12.068-59.84,2.16l-1.84,1.52c-10.565,8.802-25.477,10.14-37.44,3.36l-16-9.36
			c-11.472-6.503-25.07-8.145-37.76-4.56c-17.515,4.987-35.764-5.139-40.8-22.64l-1.76-6.4h327.2L433.025,431.973z M467.985,407.973
			h-332.72l332.72-332.72V407.973z"/>
	</g>
</g>
<g>
	<g>
		<rect x="427.985" y="191.973" width="16" height="16"/>
	</g>
</g>
<g>
	<g>
		<rect x="363.985" y="231.973" width="16" height="16"/>
	</g>
</g>
<g>
	<g>
		<rect x="403.985" y="271.973" width="16" height="16"/>
	</g>
</g>
<g>
	<g>
		<rect x="283.985" y="295.973" width="16" height="16"/>
	</g>
</g>
<g>
	<g>
		<rect x="347.985" y="351.973" width="16" height="16"/>
	</g>
</g>
<g>
	<g>
		<rect x="419.985" y="375.973" width="16" height="16"/>
	</g>
</g>
<g>
	<g>
		<rect x="195.985" y="367.973" width="16" height="16"/>
	</g>
</g>
<g>
	<g>
		<rect x="259.985" y="375.973" width="16" height="16"/>
	</g>
</g>
<g>
</g>
<g>
</g>
<g>
</g>
<g>
</g>
<g>
</g>
<g>
</g>
<g>
</g>
<g>
</g>
<g>
</g>
<g>
</g>
<g>
</g>
<g>
</g>
<g>
</g>
<g>
</g>
<g>
</g>
</svg>
